<svg xmlns="http://www.w3.org/2000/svg" width="76" height="87" fill="none"><path stroke="#FFAC30" d="M9.248 27h-2.5a6 6 0 0 1-6-6V7a6 6 0 0 1 6-6h54a6 6 0 0 1 6 6v14a6 6 0 0 1-6 6h-26.5"/><rect width="37" height="18" x="46.248" y="49.5" stroke="#FFAC30" rx="5.5" transform="rotate(90 46.248 49.5)"/><path stroke="#FFAC30" d="M9.748 1.5V43a7 7 0 1 0 14 0V23.5"/><path stroke="#FFAC30" d="M33.748 1.5V34a5 5 0 1 1-10 0V20.97M66.248 14h8.5v14.5c0 4.5-2.5 5.5-7.5 7s-20.5 6-24 7-6 2.5-6 7"/><path fill="#FFAC30" d="M27.748 57h19v8h-19z"/></svg>