<svg xmlns="http://www.w3.org/2000/svg" width="80" height="79" fill="none"><path stroke="#FFAC30" d="M9.5 51.508C4.34 51.508.241 55.849.527 61c.265 4.77 4.21 8.508 8.987 8.508H47.5"/><path stroke="#FFAC30" d="M.5 60.508v-46.5a9 9 0 0 1 9-9v47M9 17.508h37M61 17.508h11M71.5 46.008v-28M36.17 42.18l31.167-31.166a5.192 5.192 0 1 0-7.342-7.342L28.826 34.837"/><path fill="#FFAC30" stroke="#FFAC30" d="m28.696 35.41 6.892 6.893-10.137 3.245 3.245-10.137Z"/><path fill="#FFAC30" d="M67.216 3.679a5.192 5.192 0 0 1 0 7.342l-2.874 2.874L57 6.553l2.874-2.874a5.192 5.192 0 0 1 7.342 0Z"/><path stroke="#FFAC30" d="m55.354 8.654 7 7M29.354 34.654l7 7"/><path stroke="#FFAC30" stroke-linecap="round" d="M20.5 46.508h32M56 61.008l23-23v40H39l13-13"/><path stroke="#FFAC30" d="M59.207 69.508 69.5 59.215v10.293H59.207Z"/><path stroke="#FFAC30" stroke-linecap="round" d="M74.5 51.508h4M74.5 58.508h4M74.5 63.508h4M74.5 69.508h4"/></svg>