<svg xmlns="http://www.w3.org/2000/svg" width="18" height="18" fill="none"><path fill="#fff" fill-opacity=".5" d="M5.836 6.131c.885-.86 1.953-1.29 3.203-1.29 1.25 0 2.305.43 3.164 1.29.886.835 1.328 1.859 1.328 3.072 0 1.214-.443 2.25-1.328 3.11-.86.835-1.914 1.252-3.164 1.252-1.25 0-2.318-.417-3.203-1.252-.86-.86-1.29-1.896-1.29-3.11 0-1.213.43-2.237 1.29-3.072Zm1.133 5.082a2.865 2.865 0 0 0 2.07.835c.807 0 1.498-.278 2.07-.835.573-.556.86-1.226.86-2.01 0-.783-.287-1.454-.86-2.01a2.865 2.865 0 0 0-2.07-.834c-.807 0-1.497.278-2.07.834-.573.556-.86 1.227-.86 2.01 0 .784.287 1.454.86 2.01Zm7.46-7.244a.855.855 0 0 1 .313.683.97.97 0 0 1-.312.72.904.904 0 0 1-.703.304c-.287 0-.534-.101-.743-.303a.97.97 0 0 1-.312-.721c0-.278.104-.506.312-.683.209-.202.456-.303.743-.303.286 0 .52.101.703.303Zm3.321 1.745c.026.683.04 1.846.04 3.49 0 1.643-.014 2.806-.04 3.489-.078 1.542-.56 2.743-1.445 3.603-.86.834-2.084 1.277-3.672 1.327-.703.05-1.901.076-3.594.076-1.693 0-2.89-.025-3.594-.076-1.588-.076-2.812-.53-3.672-1.365a3.674 3.674 0 0 1-.82-1.062 6.12 6.12 0 0 1-.469-1.176 6.643 6.643 0 0 1-.117-1.327C.315 12.01.29 10.847.29 9.203c0-1.643.026-2.819.078-3.527C.445 4.16.914 2.983 1.773 2.15 2.633 1.289 3.857.82 5.445.745 6.148.72 7.346.708 9.04.708c1.693 0 2.89.012 3.594.037 1.588.076 2.812.544 3.672 1.404.885.834 1.367 2.023 1.445 3.565Zm-1.875 8.496c.078-.202.143-.455.195-.759.052-.328.091-.708.117-1.138.026-.455.04-.821.04-1.1v-4.02c0-.278-.014-.632-.04-1.062a10.416 10.416 0 0 0-.117-1.138 4.014 4.014 0 0 0-.195-.796c-.313-.784-.872-1.328-1.68-1.631a4.338 4.338 0 0 0-.82-.19c-.313-.05-.703-.088-1.172-.113a19.883 19.883 0 0 0-1.094-.038H6.97c-.287 0-.664.012-1.133.038-.443.025-.833.063-1.172.113-.312.05-.573.114-.781.19-.807.303-1.367.847-1.68 1.63a4.012 4.012 0 0 0-.195.797c-.052.304-.091.683-.117 1.138-.026.43-.04.784-.04 1.062v4.551c.027.38.053.709.079.987a9.775 9.775 0 0 0 .273 1.479c.339.784.899 1.327 1.68 1.63.208.077.469.14.781.19.339.051.73.089 1.172.114.469.026.833.038 1.094.038h4.179c.287 0 .651-.012 1.094-.038.469-.025.86-.063 1.172-.114.338-.05.612-.113.82-.19.808-.328 1.367-.872 1.68-1.63Z"/></svg>