<svg xmlns="http://www.w3.org/2000/svg" width="24" height="26" fill="none"><path stroke="#FFAC30" d="M22.846 9.642c0 2.35-1.252 4.764-3.32 7.42-1.676 2.15-3.836 4.397-6.19 6.846l-1.312 1.368c-.442-.463-.88-.919-1.311-1.368-2.354-2.45-4.514-4.697-6.19-6.847-2.069-2.655-3.32-5.069-3.32-7.42C1.203 4.965 5.943 1 12.024 1c6.082 0 10.822 3.964 10.822 8.642Z"/><path stroke="#FFAC30" d="M16.887 9.642c0 2.02-2.072 3.83-4.863 3.83-2.79 0-4.863-1.81-4.863-3.83 0-2.021 2.072-3.83 4.863-3.83 2.791 0 4.863 1.809 4.863 3.83Z"/></svg>