<svg xmlns="http://www.w3.org/2000/svg" width="26" height="21" fill="none"><path stroke="#FFAC30" d="M14.148 14.45c.088.041.17.082.253.123.137.068.272.135.425.2.239.103.418.151.535.151 0 0 .01 0 .033-.007a.574.574 0 0 0 .098-.041c.087-.045.192-.117.318-.219.243-.197.506-.46.798-.75l.048-.049c.3-.299.63-.625.954-.875.306-.236.704-.483 1.135-.483.378 0 .726.145.995.282.137.07.27.145.385.211l.004.002c.12.07.22.126.311.171.613.292 1.235.57 1.864.85.315.14.632.282.95.426l.092.036c.166.066.414.164.64.274.141.068.292.149.422.241.108.077.273.209.362.404.1.2.098.394.098.481v.015c0 .309-.08.715-.182 1.08-.102.365-.242.75-.394 1.021-.235.44-.64.767-1.036 1.015-.402.252-.851.455-1.221.621l-.004.002c-1.03.45-2.093.725-3.286.725-1.39 0-2.673-.392-3.866-.757-.21-.064-.417-.127-.62-.187h-.001l.141-.48a17.371 17.371 0 0 1-2.903-1.112l2.652-3.372Zm0 0-.009-.005m.009.004-.009-.004m0 0c-2.945-1.32-4.959-2.951-6.576-5.304m6.576 5.304L7.563 9.141m0 0-.007-.01m.007.01-.007-.01m0 0c-.056-.077-.108-.146-.16-.213a5.43 5.43 0 0 1-.238-.329 1.508 1.508 0 0 1-.126-.225.534.534 0 0 1-.02-.056 1.727 1.727 0 0 1 .274-.263c.244-.196.572-.41.933-.646l.06-.039c.37-.242.771-.507 1.08-.768.156-.131.306-.277.422-.434.111-.153.225-.365.225-.618 0-.39-.225-.719-.387-.928-.088-.113-.184-.222-.265-.314l-.004-.005a5.104 5.104 0 0 1-.206-.244c-.36-.493-.701-.992-1.048-1.498-.173-.254-.348-.51-.527-.767l-.04-.067c-.081-.133-.208-.343-.348-.531a2.538 2.538 0 0 0-.31-.353 1.164 1.164 0 0 0-.452-.27A1.493 1.493 0 0 0 5.94.5h-.016c-.343 0-.817.06-1.26.14-.443.08-.9.19-1.213.304-.985.343-1.598 1.234-1.997 1.814l-.005.008M7.555 9.13 1.447 2.766m0 0-.003.004m.003-.004-.003.004m0 0c-.568.846-.93 1.746-.93 2.77m.93-2.77-.93 2.77m0 0c0 1.179.51 2.266.962 3.226M.513 5.54l.963 3.226m0 0c.078.167.154.33.226.488m-.226-.488.226.488m0 0c.378.846.845 1.67 1.436 2.443L1.702 9.254Zm1.436 2.443c1.792 2.343 5.254 5.135 8.135 6.572l-8.135-6.572Zm3.855-3.359Z"/></svg>