<svg aria-hidden="true" style="position: absolute; width: 0; height: 0; overflow: hidden;" version="1.1" xmlns="http://www.w3.org/2000/svg" xmlns:xlink="http://www.w3.org/1999/xlink">
<defs>
<symbol id="clock" viewBox="0 0 41 32">
<path fill="none" stroke="#ffac30" style="stroke: var(--color1, #ffac30)" stroke-linejoin="miter" stroke-linecap="butt" stroke-miterlimit="4" stroke-width="1.5238" d="M38.961 16.003c0 8.274-8.373 15.242-19.059 15.242-10.685 0-19.059-6.969-19.059-15.242s8.373-15.242 19.059-15.242c10.687 0 19.059 6.969 19.059 15.242zM20.085 16.765v-12.194M18.959 16.003h9.438"></path>
</symbol>
<symbol id="close-gallery-phone" viewBox="0 0 32 32">
<path fill="none" stroke="#fff" style="stroke: var(--color2, #fff)" stroke-linejoin="miter" stroke-linecap="butt" stroke-miterlimit="4" stroke-width="2.7826" d="M30.631 30.106l-28.848-27.75"></path>
<path fill="none" stroke="#fff" style="stroke: var(--color2, #fff)" stroke-linejoin="miter" stroke-linecap="butt" stroke-miterlimit="4" stroke-width="2.7826" d="M1.78 29.647l28.848-27.751"></path>
</symbol>
<symbol id="close-phone" viewBox="0 0 31 32">
<path stroke-linejoin="miter" stroke-linecap="butt" stroke-miterlimit="4" stroke-width="2.4615" d="M29.882 30.702l-28.601-28.601M1.279 30.477l28.602-28.602"></path>
</symbol>
<symbol id="email" viewBox="0 0 45 32">
<path fill="none" stroke="#ffac30" style="stroke: var(--color1, #ffac30)" stroke-linejoin="miter" stroke-linecap="butt" stroke-miterlimit="4" stroke-width="1.4545" d="M5.881 5.468h33.403c2.812 0 5.092 2.28 5.092 5.092v14.547c0 2.812-2.28 5.092-5.092 5.092h-33.403c-2.812 0-5.092-2.28-5.092-5.092v-14.547c0-2.812 2.28-5.092 5.092-5.092z"></path>
<path fill="none" stroke="#ffac30" style="stroke: var(--color1, #ffac30)" stroke-linejoin="miter" stroke-linecap="butt" stroke-miterlimit="4" stroke-width="1.4545" d="M7.271 11.287l15.312 8.001 15.315-8.114"></path>
</symbol>
<symbol id="facebook" viewBox="0 0 19 32">
<path fill="#fff" style="fill: var(--color2, #fff)" opacity="0.5" d="M17.043 17.856h-4.688v13.594h-6.246v-13.594h-5.067v-5.643h5.062v-4.248c0-1.619 0.314-2.994 0.938-4.128 0.602-1.102 1.503-1.976 2.594-2.53l0.034-0.016c1.168-0.608 2.501-0.912 4-0.912 0.667 0 1.376 0.042 2.125 0.122 0.639 0.025 1.242 0.091 1.832 0.194l-0.081-0.012 0.624 0.061v4.795h-2.499c-1.168 0-2.021 0.304-2.562 0.909-0.501 0.566-0.752 1.275-0.752 2.125v3.642h5.563l-0.875 5.643z"></path>
</symbol> 
<symbol id="icon-measurer" viewBox="0 0 32 32">
<path fill="#ffac30" style="fill: var(--color1, #ffac30)" d="M0.711 5.646c-0.847 0.848-0.666 2.042 0.008 2.715 0.027 0.026 2.734 2.612 6.541 6.419 0.090 0.091 0.216 0.148 0.354 0.148s0.264-0.056 0.354-0.148l0-0c0.090-0.090 0.146-0.215 0.146-0.354s-0.056-0.263-0.146-0.354v0c-0.574-0.574-1.12-1.117-1.638-1.631l1.589-1.589c0.087-0.090 0.14-0.212 0.14-0.347 0-0.276-0.224-0.5-0.5-0.5-0.135 0-0.258 0.053-0.348 0.14l-1.593 1.593c-0.701-0.693-1.455-1.433-2.212-2.171l-0.103-0.1 3.615-3.615c0.087-0.090 0.14-0.212 0.14-0.347 0-0.276-0.224-0.5-0.5-0.5-0.135 0-0.258 0.053-0.348 0.141l-3.626 3.626c-0.736-0.713-1.16-1.118-1.167-1.125-0.211-0.211-0.488-0.805 0-1.293l5-5c0.193-0.196 0.707-0.585 1.271-0.024 0.025 0.028 2.55 2.896 6.404 6.75 0.090 0.087 0.212 0.14 0.347 0.14 0.276 0 0.5-0.224 0.5-0.5 0-0.135-0.053-0.258-0.14-0.348l0 0c-3.83-3.829-6.336-6.675-6.382-6.727-0.932-0.93-2.056-0.651-2.707 0l-5.001 5zM21.919 24.146c-0.090-0.090-0.215-0.146-0.354-0.146s-0.263 0.056-0.354 0.146l-1.591 1.59c-0.534-0.541-1.032-1.043-1.533-1.544l0.003 0.003c-0.090-0.087-0.212-0.14-0.347-0.14-0.276 0-0.5 0.224-0.5 0.5 0 0.135 0.053 0.258 0.14 0.348l-0-0c2.1 2.095 4.163 4.216 6.195 6.367l0.133 0.142c0.343 0.344 0.813 0.533 1.323 0.533 0.525 0 1.056-0.205 1.385-0.535l4.998-5.057c0.629-0.629 0.665-1.696 0.078-2.285l-6.706-6.705c-0.090-0.087-0.212-0.14-0.347-0.14-0.276 0-0.5 0.224-0.5 0.5 0 0.135 0.053 0.258 0.14 0.348l6.706 6.705c0.2 0.2 0.162 0.632-0.079 0.873l-4.999 5.057c-0.115 0.116-0.376 0.24-0.676 0.24-0.172 0-0.418-0.042-0.604-0.229-0.010-0.011-0.429-0.458-1.156-1.219l3.644-3.644c0.087-0.090 0.14-0.212 0.14-0.347 0-0.276-0.224-0.5-0.5-0.5-0.135 0-0.258 0.053-0.348 0.14l-3.629 3.629c-0.832-0.864-1.569-1.622-2.309-2.376l0.049 0.050 1.596-1.596c0.090-0.090 0.146-0.215 0.146-0.353s-0.056-0.263-0.146-0.353v0zM0.207 31.829c0.091 0.093 0.217 0.15 0.357 0.15 0.051 0 0.101-0.008 0.147-0.022l-0.004 0.001 10-2.979c0.083-0.025 0.155-0.069 0.212-0.127l0-0 17.090-17.205c0.024-0.024 0.036-0.055 0.054-0.082l3.656-3.656c0.283-0.281 0.459-0.671 0.459-1.101s-0.175-0.82-0.459-1.101l-5.235-5.234c-0.588-0.588-1.615-0.588-2.203 0l-3.739 3.739c-0.024 0.024-0.037 0.055-0.055 0.083l-17.116 17.117c-0.054 0.054-0.096 0.121-0.121 0.195l-0.001 0.003-3.16 9.715c-0.016 0.046-0.025 0.1-0.025 0.155 0 0.136 0.054 0.259 0.142 0.349l-0-0zM20.925 5.271l1.039 1.039-15.523 15.565-1.727-0.392 16.211-16.212zM7.065 22.666l15.607-15.648 2.436 2.436-15.748 15.546h-2.295v-2.334zM26.949 11.296l-16.244 16.354-0.577-2.002 15.687-15.487 1.134 1.135zM4.058 22.359l2.007 0.456v2.685c0 0.276 0.224 0.5 0.5 0.5v0h2.624l0.634 2.2-8.488 2.529 2.723-8.37zM24.99 1.179c0.102-0.098 0.241-0.159 0.395-0.159s0.292 0.060 0.395 0.159l5.235 5.235c0.102 0.1 0.165 0.24 0.165 0.394s-0.063 0.294-0.165 0.395l-3.371 3.372-6.023-6.023 3.371-3.373z"></path>
</symbol>
<symbol id="icon-application" viewBox="0 0 26 32">
<path fill="none" stroke="#ffac30" style="stroke: var(--color1, #ffac30)" stroke-linejoin="round" stroke-linecap="butt" stroke-miterlimit="4" stroke-width="0.3404" d="M12.597 0.34h-10.213c-1.128 0-2.043 0.915-2.043 2.043v0 19.746c0 1.128 0.915 2.043 2.043 2.043v0h12.937c1.128 0 2.043-0.915 2.043-2.043v0-14.299"></path>
<path fill="none" stroke="#ffac30" style="stroke: var(--color1, #ffac30)" stroke-linejoin="round" stroke-linecap="butt" stroke-miterlimit="4" stroke-width="0.3404" d="M8.852 24.172v5.447c0 1.128 0.915 2.043 2.043 2.043v0h12.937c1.128 0 2.043-0.915 2.043-2.043v0-13.958"></path>
<path fill="#ffac30" style="fill: var(--color1, #ffac30); stroke: var(--color1, #ffac30)" stroke="#ffac30" stroke-linejoin="round" stroke-linecap="butt" stroke-miterlimit="4" stroke-width="0.3404" d="M12.597 5.107h5.107l-5.107-4.766v4.766zM20.768 12.597h5.107l-5.107-4.766v4.766z"></path>
<path fill="none" stroke="#ffac30" style="stroke: var(--color1, #ffac30)" stroke-linejoin="miter" stroke-linecap="butt" stroke-miterlimit="4" stroke-width="0.3404" d="M20.768 8.001h-3.404M13.959 20.257h-10.213M13.959 17.533h-10.213M13.959 14.469h-10.213"></path>
</symbol>
<symbol id="icon-completion" viewBox="0 0 29 32">
<path fill="none" stroke="#ffac30" style="stroke: var(--color1, #ffac30)" stroke-linejoin="miter" stroke-linecap="round" stroke-miterlimit="4" stroke-width="0.3721" d="M2.884 11.496v17.303c0 1.233 1 2.233 2.233 2.233v0h15.443"></path>
<path fill="none" stroke="#ffac30" style="stroke: var(--color1, #ffac30)" stroke-linejoin="round" stroke-linecap="round" stroke-miterlimit="4" stroke-width="0.3721" d="M0.279 13.394l13.768-10.419 14.066 10.419"></path>
<path fill="none" stroke="#ffac30" style="stroke: var(--color1, #ffac30)" stroke-linejoin="miter" stroke-linecap="butt" stroke-miterlimit="4" stroke-width="0.3721" d="M20.187 18.938c0 3.494-2.832 6.326-6.326 6.326s-6.326-2.832-6.326-6.326c0-3.494 2.832-6.326 6.326-6.326s6.326 2.832 6.326 6.326z"></path>
<path fill="#ffac30" style="fill: var(--color1, #ffac30)" d="M13.861 23.217c-2.364 0-4.279-1.916-4.279-4.279s1.916-4.279 4.279-4.279c2.363 0 4.279 1.916 4.279 4.279s-1.916 4.279-4.279 4.279zM16.221 17.584c0.036-0.034 0.058-0.082 0.058-0.135 0-0.103-0.083-0.186-0.186-0.186-0.050 0-0.095 0.019-0.128 0.051l0-0-3.024 2.856-1.186-1.12c-0.033-0.031-0.078-0.051-0.128-0.051-0.103 0-0.186 0.083-0.186 0.186 0 0.053 0.022 0.101 0.058 0.135l0 0 1.441 1.361 3.28-3.097z"></path>
<path fill="none" stroke="#ffac30" style="stroke: var(--color1, #ffac30)" stroke-linejoin="miter" stroke-linecap="butt" stroke-miterlimit="4" stroke-width="0.3721" d="M19.392 22.364l5.907 5.907c0.269 0.269 0.436 0.641 0.436 1.052 0 0.822-0.666 1.488-1.488 1.488-0.411 0-0.783-0.167-1.052-0.436v0l-5.907-5.908 2.105-2.105z"></path>
<path fill="none" stroke="#ffac30" style="stroke: var(--color1, #ffac30)" stroke-linejoin="miter" stroke-linecap="round" stroke-miterlimit="4" stroke-width="0.3721" d="M25.024 11.123v14.14"></path>
</symbol>
<symbol id="icon-contract" viewBox="0 0 33 32">
<path fill="none" stroke="#ffac30" style="stroke: var(--color1, #ffac30)" stroke-linejoin="miter" stroke-linecap="round" stroke-miterlimit="4" stroke-width="0.3478" d="M19.141 13.566l8.024 6.164c0.477 0.369 0.782 0.942 0.782 1.586 0 0.436-0.139 0.838-0.375 1.167l0.004-0.006c-0.367 0.51-0.959 0.839-1.628 0.839-0.437 0-0.841-0.14-1.171-0.378l0.006 0.004-2.299-1.646"></path>
<path fill="none" stroke="#ffac30" style="stroke: var(--color1, #ffac30)" stroke-linejoin="miter" stroke-linecap="butt" stroke-miterlimit="4" stroke-width="0.3478" d="M19.141 13.566c-1.565-1.217-2.957-0.348-5.044-0.348-1.565 0-2.957-0.87-3.131-2.261-0.13-1.044 4-1.391 5.739-1.565s3.131 0.696 4.348 1.044c0.974 0.278 2.783-0.464 3.652-0.87"></path>
<path fill="none" stroke="#ffac30" style="stroke: var(--color1, #ffac30)" stroke-linejoin="miter" stroke-linecap="round" stroke-miterlimit="4" stroke-width="0.3478" d="M23.095 21.718l1.584 1.169c0.426 0.317 0.699 0.819 0.699 1.384 0 0.375-0.12 0.721-0.323 1.004l0.003-0.005c-0.316 0.439-0.825 0.722-1.401 0.722-0.367 0-0.706-0.115-0.985-0.31l0.006 0.004-2.187-1.516"></path>
<path fill="none" stroke="#ffac30" style="stroke: var(--color1, #ffac30)" stroke-linejoin="miter" stroke-linecap="round" stroke-miterlimit="4" stroke-width="0.3478" d="M20.532 24.176l1.951 1.409c0.361 0.263 0.592 0.683 0.592 1.158 0 0.323-0.107 0.621-0.288 0.861l0.003-0.004c-0.263 0.349-0.677 0.572-1.143 0.572-0.329 0-0.631-0.111-0.873-0.297l0.003 0.002-2.332-1.789"></path>
<path fill="none" stroke="#ffac30" style="stroke: var(--color1, #ffac30)" stroke-linejoin="miter" stroke-linecap="round" stroke-miterlimit="4" stroke-width="0.3478" d="M18.445 26.089l1.602 1.201c0.36 0.272 0.591 0.7 0.591 1.181 0 0.334-0.111 0.642-0.298 0.889l0.003-0.004c-0.272 0.36-0.7 0.591-1.182 0.591-0.315 0-0.606-0.098-0.846-0.266l0.005 0.003-1.788-1.238"></path>
<path fill="none" stroke="#ffac30" style="stroke: var(--color1, #ffac30)" stroke-linejoin="miter" stroke-linecap="butt" stroke-miterlimit="4" stroke-width="0.3478" d="M5.464 19.987l2.607-2.138c0.738-0.605 1.828-0.498 2.433 0.241l-0-0c0.605 0.738 0.498 1.828-0.241 2.433l-2.607 2.138c-0.738 0.605-1.828 0.498-2.433-0.241l0 0c-0.605-0.738-0.498-1.828 0.241-2.433z"></path>
<path fill="none" stroke="#ffac30" style="stroke: var(--color1, #ffac30)" stroke-linejoin="miter" stroke-linecap="butt" stroke-miterlimit="4" stroke-width="0.3478" d="M9.986 25.287l2.423-1.987c0.743-0.609 1.839-0.501 2.449 0.242s0.501 1.839-0.242 2.449l-2.423 1.987c-0.743 0.609-1.839 0.501-2.449-0.242s-0.501-1.839 0.242-2.449z"></path>
<path fill="none" stroke="#ffac30" style="stroke: var(--color1, #ffac30)" stroke-linejoin="miter" stroke-linecap="butt" stroke-miterlimit="4" stroke-width="0.3478" d="M12.097 28.099l1.588-1.302c0.7-0.574 1.733-0.472 2.307 0.228l0 0c0.574 0.7 0.472 1.733-0.228 2.307l-1.588 1.302c-0.7 0.574-1.733 0.472-2.307-0.228l-0-0c-0.574-0.7-0.472-1.733 0.228-2.307z"></path>
<path fill="none" stroke="#ffac30" style="stroke: var(--color1, #ffac30)" stroke-linejoin="miter" stroke-linecap="butt" stroke-miterlimit="4" stroke-width="0.3478" d="M7.687 22.677l3.93-3.223c0.743-0.609 1.839-0.501 2.449 0.242s0.501 1.839-0.242 2.449l-3.93 3.223c-0.743 0.609-1.839 0.501-2.449-0.242s-0.501-1.839 0.242-2.449z"></path>
<path fill="#ffac30" style="fill: var(--color1, #ffac30)" d="M0.578 17.583l5.551-9.614c0.319-0.553 1.026-0.742 1.579-0.423l0 0c0.553 0.319 0.742 1.026 0.423 1.579l-5.551 9.614c-0.319 0.553-1.026 0.742-1.579 0.423l-0-0c-0.553-0.319-0.742-1.026-0.423-1.578z"></path>
<path fill="#ffac30" style="fill: var(--color1, #ffac30)" d="M31.831 17.263l-5.379-9.316c-0.367-0.635-1.178-0.852-1.813-0.486l-0 0c-0.635 0.367-0.852 1.178-0.486 1.813l5.379 9.316c0.367 0.635 1.178 0.852 1.813 0.486l0-0c0.635-0.367 0.852-1.178 0.486-1.813z"></path>
<path fill="none" stroke="#ffac30" style="stroke: var(--color1, #ffac30)" stroke-linejoin="miter" stroke-linecap="butt" stroke-miterlimit="4" stroke-width="0.3478" d="M2.792 18.088c0.696 0 1.565 0.174 2.783 1.739M29.403 18.088c-0.609 0-1.37 0.139-2.435 1.391M7.538 9.573l3.478 1.044"></path>
<path fill="none" stroke="#ffac30" style="stroke: var(--color1, #ffac30)" stroke-linejoin="miter" stroke-linecap="round" stroke-miterlimit="4" stroke-width="0.3478" d="M16.010 4.001v-3.826M11.422 5.861l-2.248-3.533M20.946 5.861l2.248-3.533"></path>
</symbol>
<symbol id="icon-drafting" viewBox="0 0 32 32">
<path fill="none" stroke="#ffac30" style="stroke: var(--color1, #ffac30)" stroke-linejoin="miter" stroke-linecap="butt" stroke-miterlimit="4" stroke-width="0.4051" d="M3.848 20.865c-2.090 0-3.75 1.758-3.635 3.845 0.107 1.932 1.705 3.446 3.64 3.446h15.387"></path>
<path fill="none" stroke="#ffac30" style="stroke: var(--color1, #ffac30)" stroke-linejoin="miter" stroke-linecap="butt" stroke-miterlimit="4" stroke-width="0.4051" d="M0.203 24.511v-18.835c0-2.013 1.632-3.646 3.646-3.646v0 19.038M3.646 7.093h14.987M24.709 7.093h4.456M28.962 18.637v-11.342M14.651 17.087l12.625-12.624c0.392-0.382 0.635-0.916 0.635-1.506 0-1.161-0.942-2.103-2.103-2.103-0.59 0-1.124 0.243-1.506 0.635l-0 0-12.625 12.624"></path>
<path fill="#ffac30" style="fill: var(--color1, #ffac30); stroke: var(--color1, #ffac30)" stroke="#ffac30" stroke-linejoin="miter" stroke-linecap="butt" stroke-miterlimit="4" stroke-width="0.4051" d="M11.624 14.344l2.792 2.792-4.106 1.314 1.314-4.106z"></path>
<path fill="#ffac30" style="fill: var(--color1, #ffac30)" d="M27.227 1.491c0.381 0.381 0.616 0.906 0.616 1.487s-0.235 1.106-0.616 1.487l-1.164 1.164-2.974-2.974 1.164-1.164c0.381-0.381 0.906-0.616 1.487-0.616s1.106 0.235 1.487 0.616v0z"></path>
<path fill="none" stroke="#ffac30" style="stroke: var(--color1, #ffac30)" stroke-linejoin="miter" stroke-linecap="butt" stroke-miterlimit="4" stroke-width="0.4051" d="M22.422 3.507l2.835 2.835M11.89 14.038l2.835 2.835"></path>
<path fill="none" stroke="#ffac30" style="stroke: var(--color1, #ffac30)" stroke-linejoin="miter" stroke-linecap="round" stroke-miterlimit="4" stroke-width="0.4051" d="M8.304 18.84h12.962M22.684 24.713l9.316-9.316v16.203h-16.203l5.266-5.266"></path>
<path fill="none" stroke="#ffac30" style="stroke: var(--color1, #ffac30)" stroke-linejoin="miter" stroke-linecap="butt" stroke-miterlimit="4" stroke-width="0.4051" d="M23.983 28.156l4.169-4.169v4.169h-4.169z"></path>
<path fill="none" stroke="#ffac30" style="stroke: var(--color1, #ffac30)" stroke-linejoin="miter" stroke-linecap="round" stroke-miterlimit="4" stroke-width="0.4051" d="M30.177 20.865h1.62M30.177 23.701h1.62M30.177 25.726h1.62M30.177 28.156h1.62"></path>
</symbol>
<symbol id="icon-paint-roller" viewBox="0 0 28 32">
<path fill="none" stroke="#ffac30" style="stroke: var(--color1, #ffac30)" stroke-linejoin="miter" stroke-linecap="butt" stroke-miterlimit="4" stroke-width="0.3678" d="M3.401 9.932h-0.92c-1.219 0-2.207-0.988-2.207-2.207v0-5.15c0-1.219 0.988-2.207 2.207-2.207v0h19.864c1.219 0 2.207 0.988 2.207 2.207v0 5.15c0 1.219-0.988 2.207-2.207 2.207v0h-9.748"></path>
<path fill="none" stroke="#ffac30" style="stroke: var(--color1, #ffac30)" stroke-linejoin="miter" stroke-linecap="butt" stroke-miterlimit="4" stroke-width="0.3678" d="M17.012 20.232v9.564c0 1.117-0.906 2.023-2.023 2.023h-2.575c-1.117 0-2.023-0.906-2.023-2.023v-9.564c0-1.117 0.906-2.023 2.023-2.023h2.575c1.117 0 2.023 0.906 2.023 2.023z"></path>
<path fill="none" stroke="#ffac30" style="stroke: var(--color1, #ffac30)" stroke-linejoin="miter" stroke-linecap="butt" stroke-miterlimit="4" stroke-width="0.3678" d="M3.585 0.552v15.266c0 1.422 1.153 2.575 2.575 2.575s2.575-1.153 2.575-2.575v-7.173"></path>
<path fill="none" stroke="#ffac30" style="stroke: var(--color1, #ffac30)" stroke-linejoin="miter" stroke-linecap="butt" stroke-miterlimit="4" stroke-width="0.3678" d="M12.414 0.552v11.955c0 1.016-0.823 1.839-1.839 1.839s-1.839-0.823-1.839-1.839v0-4.793M24.369 5.15h3.127v5.334c0 1.655-0.92 2.023-2.759 2.575s-7.541 2.207-8.828 2.575-2.207 0.92-2.207 2.575"></path>
<path fill="#ffac30" style="fill: var(--color1, #ffac30)" d="M10.207 20.967h6.989v2.943h-6.989z"></path>
</symbol>
<symbol id="instagram" viewBox="0 0 32 32">
<path fill="#fff" style="fill: var(--color2, #fff)" opacity="0.5" d="M10.376 10.901c1.573-1.529 3.472-2.294 5.695-2.294s4.098 0.765 5.625 2.294c1.575 1.485 2.361 3.305 2.361 5.462 0 2.158-0.788 4-2.361 5.529-1.529 1.485-3.403 2.226-5.625 2.226s-4.121-0.741-5.695-2.226c-1.529-1.529-2.294-3.371-2.294-5.529 0-2.157 0.765-3.977 2.294-5.462zM12.391 19.936c0.921 0.918 2.192 1.485 3.595 1.485 0.030 0 0.060-0 0.090-0.001l-0.004 0c1.435 0 2.663-0.494 3.68-1.485 1.019-0.989 1.529-2.18 1.529-3.574 0-1.392-0.51-2.585-1.529-3.574-0.921-0.917-2.191-1.484-3.593-1.484-0.031 0-0.061 0-0.091 0.001l0.005-0c-1.435 0-2.662 0.494-3.68 1.483s-1.529 2.182-1.529 3.574c0 1.394 0.51 2.585 1.529 3.574zM25.654 7.057c0.341 0.281 0.557 0.703 0.557 1.176 0 0.013-0 0.027-0.001 0.040l0-0.002c0 0.004 0 0.008 0 0.013 0 0.5-0.213 0.951-0.554 1.266l-0.001 0.001c-0.296 0.333-0.725 0.541-1.203 0.541-0.017 0-0.033-0-0.049-0.001l0.002 0c-0.51 0-0.949-0.18-1.321-0.539-0.342-0.316-0.555-0.767-0.555-1.267 0-0.005 0-0.010 0-0.015v0.001c0-0.494 0.185-0.9 0.555-1.214 0.372-0.359 0.811-0.539 1.321-0.539 0.509 0 0.925 0.18 1.25 0.539zM31.559 10.159c0.046 1.214 0.071 3.282 0.071 6.205 0 2.921-0.025 4.989-0.071 6.203-0.139 2.742-0.996 4.877-2.569 6.406-1.529 1.483-3.705 2.27-6.529 2.359-1.25 0.089-3.38 0.135-6.39 0.135s-5.138-0.044-6.39-0.135c-2.823-0.135-5-0.942-6.529-2.427-0.588-0.528-1.076-1.153-1.441-1.852l-0.017-0.036c-0.32-0.595-0.604-1.289-0.815-2.014l-0.019-0.077c-0.133-0.665-0.209-1.43-0.209-2.212 0-0.052 0-0.104 0.001-0.155l-0 0.008c-0.092-1.214-0.137-3.282-0.137-6.205 0-2.921 0.046-5.012 0.139-6.271 0.137-2.695 0.971-4.788 2.498-6.269 1.529-1.531 3.705-2.365 6.529-2.498 1.25-0.044 3.38-0.066 6.392-0.066 3.010 0 5.138 0.021 6.39 0.066 2.823 0.135 5 0.967 6.529 2.496 1.573 1.483 2.43 3.597 2.569 6.338zM28.225 25.265c0.139-0.359 0.254-0.809 0.347-1.349 0.092-0.583 0.162-1.259 0.208-2.023 0.046-0.809 0.071-1.46 0.071-1.956v-7.147c0-0.494-0.025-1.124-0.071-1.888-0.036-0.75-0.111-1.446-0.222-2.13l0.014 0.107c-0.075-0.532-0.196-1.009-0.363-1.465l0.016 0.050c-0.556-1.394-1.55-2.361-2.987-2.9-0.418-0.146-0.91-0.265-1.418-0.333l-0.040-0.004c-0.556-0.089-1.25-0.156-2.084-0.201-0.57-0.038-1.248-0.062-1.931-0.067l-0.014-0h-7.359c-0.51 0-1.181 0.021-2.014 0.068-0.788 0.044-1.481 0.112-2.084 0.201-0.555 0.089-1.019 0.203-1.389 0.338-1.435 0.539-2.431 1.506-2.987 2.898-0.151 0.407-0.272 0.885-0.342 1.379l-0.004 0.038c-0.092 0.54-0.162 1.214-0.208 2.023-0.046 0.765-0.071 1.394-0.071 1.888v8.092c0.048 0.676 0.094 1.261 0.14 1.755 0.107 0.992 0.278 1.885 0.514 2.751l-0.028-0.122c0.603 1.394 1.598 2.359 2.987 2.898 0.37 0.137 0.834 0.249 1.389 0.338 0.603 0.091 1.298 0.158 2.084 0.203 0.834 0.046 1.481 0.068 1.945 0.068h7.43c0.51 0 1.157-0.021 1.945-0.068 0.834-0.044 1.529-0.112 2.084-0.203 0.601-0.089 1.088-0.201 1.458-0.338 1.437-0.583 2.43-1.55 2.987-2.898z"></path>
</symbol>
<symbol id="map-pin" viewBox="0 0 30 32">
<path fill="none" stroke="#ffac30" style="stroke: var(--color1, #ffac30)" stroke-linejoin="miter" stroke-linecap="butt" stroke-miterlimit="4" stroke-width="1.2308" d="M28.124 11.869c0 2.893-1.541 5.864-4.087 9.134-2.063 2.647-4.722 5.412-7.62 8.427l-1.615 1.684c-0.544-0.57-1.083-1.131-1.614-1.684-2.898-3.016-5.557-5.782-7.62-8.428-2.547-3.268-4.087-6.24-4.087-9.134 0-5.756 5.835-10.637 13.32-10.637 7.487 0 13.321 4.88 13.321 10.638z"></path>
<path fill="none" stroke="#ffac30" style="stroke: var(--color1, #ffac30)" stroke-linejoin="miter" stroke-linecap="butt" stroke-miterlimit="4" stroke-width="1.2308" d="M20.788 11.869c0 2.487-2.551 4.715-5.986 4.715-3.434 0-5.986-2.228-5.986-4.715 0-2.488 2.551-4.715 5.986-4.715s5.986 2.227 5.986 4.715z"></path>
</symbol>
<symbol id="menu" viewBox="0 0 38 32">
<path fill="none" stroke="#fff" style="stroke: var(--color2, #fff)" stroke-linejoin="miter" stroke-linecap="butt" stroke-miterlimit="4" stroke-width="2" d="M37.5 30.505h-30.834M37.5 16.005h-16.034M37.5 2.505h-37.5"></path>
</symbol>
<symbol id="phone" viewBox="0 0 34 32">
<path fill="#fff" style="fill: var(--color2, #fff)" d="M32.708 25.501c0-0.153 0-0.308-0.064-0.46-0.155-0.463-1.231-0.946-1.672-1.167-1.253-0.702-2.529-1.384-3.76-2.11-0.571-0.352-1.276-1.010-1.955-1.010-1.342 0-3.3 3.979-4.487 3.979-0.591 0-1.362-0.552-1.891-0.859-4.002-2.219-6.772-4.989-8.991-8.991-0.308-0.529-0.859-1.298-0.859-1.891 0-1.187 3.979-3.145 3.979-4.487 0-0.68-0.658-1.384-1.010-1.955-0.726-1.231-1.409-2.507-2.11-3.76-0.222-0.441-0.704-1.517-1.167-1.672-0.15-0.062-0.308-0.062-0.46-0.062-0.793 0-2.332 0.35-3.056 0.68-1.079 0.463-1.78 1.694-2.332 2.684-0.702 1.295-1.12 2.615-1.12 4.088 0 2.044 0.837 3.891 1.517 5.762 0.483 1.34 1.079 2.637 1.825 3.847 2.31 3.738 6.816 8.245 10.555 10.555 1.1 0.682 2.37 1.296 3.703 1.777l0.143 0.045c1.872 0.685 3.718 1.519 5.762 1.519 1.473 0 2.79-0.419 4.088-1.12 0.99-0.552 2.221-1.256 2.684-2.332 0.328-0.724 0.68-2.266 0.68-3.054z"></path>
</symbol>
<symbol id="phone-footer" viewBox="0 0 40 32">
<path fill="none" stroke="#ffac30" style="stroke: var(--color1, #ffac30)" stroke-linejoin="miter" stroke-linecap="butt" stroke-miterlimit="4" stroke-width="1.5238" d="M21.562 22.023c0.134 0.063 0.259 0.125 0.386 0.187 0.209 0.104 0.415 0.206 0.648 0.305 0.364 0.157 0.637 0.23 0.815 0.23 0 0 0.015 0 0.050-0.011 0.058-0.018 0.107-0.039 0.154-0.065l-0.005 0.002c0.133-0.069 0.293-0.178 0.485-0.334 0.37-0.3 0.771-0.701 1.216-1.143l0.073-0.075c0.457-0.456 0.96-0.953 1.454-1.334 0.466-0.36 1.073-0.736 1.73-0.736 0.576 0 1.106 0.221 1.516 0.43 0.209 0.107 0.412 0.221 0.587 0.322l0.006 0.003c0.183 0.107 0.335 0.192 0.474 0.261 0.934 0.445 1.882 0.869 2.841 1.295 0.48 0.213 0.963 0.43 1.448 0.649l0.14 0.055c0.253 0.101 0.631 0.25 0.975 0.418 0.215 0.104 0.445 0.227 0.643 0.367 0.165 0.117 0.416 0.319 0.552 0.616 0.152 0.305 0.149 0.6 0.149 0.733v0.023c0 0.471-0.122 1.090-0.277 1.646s-0.369 1.143-0.6 1.556c-0.358 0.671-0.975 1.169-1.579 1.547-0.613 0.384-1.297 0.693-1.861 0.946l-0.006 0.003c-1.57 0.686-3.19 1.105-5.008 1.105-2.118 0-4.074-0.597-5.892-1.154-0.32-0.098-0.636-0.194-0.945-0.285h-0.002l0.215-0.732c-1.712-0.49-3.18-1.067-4.578-1.764l0.154 0.069 4.042-5.139zM21.562 22.023l-0.014-0.008M21.562 22.021l-0.014-0.006M21.548 22.015c-4.488-2.012-7.558-4.497-10.022-8.084M21.548 22.015l-10.022-8.084M11.526 13.932l-0.011-0.015M11.526 13.932l-0.011-0.015M11.516 13.917c-0.085-0.117-0.165-0.223-0.244-0.325-0.111-0.141-0.231-0.304-0.344-0.472l-0.019-0.029c-0.068-0.098-0.132-0.211-0.186-0.329l-0.006-0.014c-0.010-0.022-0.020-0.051-0.029-0.080l-0.002-0.006c0.125-0.149 0.262-0.28 0.412-0.396l0.006-0.005c0.372-0.299 0.872-0.625 1.422-0.985l0.091-0.059c0.564-0.369 1.175-0.773 1.646-1.17 0.238-0.2 0.466-0.422 0.643-0.661 0.169-0.233 0.343-0.556 0.343-0.942 0-0.594-0.343-1.096-0.59-1.414-0.134-0.172-0.28-0.338-0.404-0.479l-0.006-0.008c-0.1-0.111-0.203-0.232-0.302-0.356l-0.012-0.016c-0.549-0.751-1.068-1.512-1.597-2.283-0.264-0.387-0.53-0.777-0.803-1.169l-0.061-0.102c-0.123-0.203-0.317-0.523-0.53-0.809-0.146-0.2-0.301-0.376-0.471-0.536l-0.002-0.002c-0.189-0.183-0.42-0.324-0.676-0.408l-0.013-0.004c-0.197-0.062-0.423-0.097-0.658-0.097-0.025 0-0.051 0-0.076 0.001l0.004-0h-0.024c-0.523 0-1.245 0.091-1.92 0.213s-1.372 0.29-1.849 0.463c-1.501 0.523-2.435 1.881-3.043 2.765l-0.008 0.012M11.514 13.915l-9.309-9.699M2.205 4.216l-0.005 0.006M2.205 4.216l-0.005 0.006M2.201 4.222c-0.866 1.289-1.417 2.661-1.417 4.222M2.201 4.222l-1.417 4.222M0.783 8.444c0 1.797 0.777 3.453 1.466 4.917M0.782 8.444l1.468 4.917M2.249 13.36c0.119 0.255 0.235 0.503 0.344 0.744M2.249 13.36l0.344 0.744M2.594 14.104c0.576 1.289 1.288 2.545 2.189 3.723l-2.189-3.723zM4.782 17.827c2.731 3.571 8.007 7.826 12.398 10.016l-12.398-10.016z"></path>
</symbol>
<symbol id="telegram" viewBox="0 0 38 32">
<path fill="#fff" style="fill: var(--color2, #fff)" opacity="0.5" d="M37.871 3.211l-5.667 25.733c-0.446 1.835-1.472 2.319-3.085 1.457l-8.583-6.151-4.167 3.883c-0.555 0.542-1.139 0.811-1.75 0.811l0.666-8.496 15.919-13.919c0.388-0.378 0.388-0.593 0-0.646-0.333-0.109-0.693-0.028-1.084 0.241l-19.669 12.059-8.5-2.59c-0.945-0.271-1.389-0.674-1.333-1.214s0.64-0.998 1.75-1.376l33.087-12.46c0.832-0.271 1.5-0.164 2.001 0.322 0.499 0.431 0.64 1.214 0.416 2.347z"></path>
</symbol>
<symbol id="youtube" viewBox="0 0 47 32">
<path fill="#fff" style="fill: var(--color2, #fff)" opacity="0.5" d="M45.315 5.78c0.166 0.649 0.307 1.458 0.418 2.429 0.166 0.971 0.277 1.942 0.333 2.915 0.056 0.918 0.083 1.78 0.083 2.589 0.056 0.811 0.085 1.485 0.085 2.025v0.728c0 4.857-0.307 8.445-0.918 10.764-0.277 0.918-0.779 1.729-1.502 2.429-0.699 0.68-1.57 1.187-2.542 1.448l-0.041 0.009c-1.056 0.269-3.058 0.484-6.003 0.647-2.945 0.107-5.64 0.19-8.088 0.243h-3.666c-9.503 0-15.423-0.297-17.756-0.89-2.168-0.593-3.53-1.889-4.085-3.884-0.277-1.026-0.502-2.431-0.668-4.211-0.111-1.835-0.194-3.372-0.25-4.614v-1.942c0-4.802 0.305-8.366 0.918-10.685 0.277-0.971 0.777-1.808 1.5-2.508 0.699-0.68 1.57-1.187 2.542-1.448l0.041-0.009c1.058-0.269 3.060-0.459 6.005-0.566 2.943-0.162 5.638-0.273 8.086-0.324h3.666c9.503 0 15.423 0.297 17.756 0.89 1.003 0.269 1.863 0.755 2.584 1.458 0.723 0.7 1.223 1.537 1.5 2.508zM18.806 23.102l11.921-6.637-11.919-6.556v13.193z"></path>
</symbol>
</defs>
</svg>
