<svg xmlns="http://www.w3.org/2000/svg" width="22" height="15" fill="none"><path fill="#fff" fill-opacity=".5" d="M21.234 2.711c.078.304.144.683.196 1.138.078.455.13.91.156 1.366.026.43.039.834.039 1.213.026.38.04.696.04.949v.341c0 2.276-.144 3.957-.43 5.044-.13.43-.365.81-.704 1.138a2.726 2.726 0 0 1-1.21.683c-.495.126-1.433.227-2.813.303-1.38.05-2.643.089-3.79.114H11c-4.453 0-7.227-.139-8.32-.417-1.016-.278-1.654-.885-1.914-1.82-.13-.481-.235-1.139-.313-1.973C.401 9.93.362 9.21.336 8.628v-.91c0-2.25.143-3.92.43-5.007.13-.455.364-.847.703-1.175a2.727 2.727 0 0 1 1.21-.683C3.175.727 4.113.638 5.493.588 6.872.512 8.135.46 9.282.436H11c4.453 0 7.227.139 8.32.417.47.126.873.354 1.211.683.339.328.573.72.703 1.175ZM8.812 10.828l5.586-3.11-5.585-3.072v6.182Z"/></svg>